#define desk_width  10
#define desk_height 10
static unsigned char desk_bits[] = {
 0xcf,0xff,0xcf,0xff,0xcf,0xff,0xcf,0xff,0x0f,0xfc,0x0f,0xfc,
 0xff,0xff,0xff,0xff,0xff,0xff,0xff,0xff};
